<svg width="883" height="627" viewBox="0 0 883 627" fill="none" xmlns="http://www.w3.org/2000/svg">
<path d="M230.336 1C256.293 1 277.336 22.0426 277.336 48C277.336 75.6142 299.722 98 327.336 98H554.702C582.316 98 604.702 75.6142 604.702 48C604.702 22.0426 625.745 1 651.702 1H862C873.046 1 882 9.95431 882 21V606C882 617.046 873.046 626 862 626H21C9.95431 626 1 617.046 1 606V21C1 9.95431 9.95432 1.00001 21 1H230.336Z" fill="#9747FF" fill-opacity="0.15"/>
<path d="M554.702 98V98.5V98ZM862 1V0.5V1ZM882 21H882.5H882ZM882 606H882.5H882ZM862 626V626.5V626ZM21 626V626.5V626ZM1 606H0.5H1ZM1 21H0.5H1ZM21 1V0.5V1ZM277.336 48H276.836C276.836 75.8904 299.446 98.5 327.336 98.5V98V97.5C299.998 97.5 277.836 75.3381 277.836 48H277.336ZM327.336 98V98.5H554.702V98V97.5H327.336V98ZM554.702 98V98.5C582.592 98.5 605.202 75.8904 605.202 48H604.702H604.202C604.202 75.3381 582.04 97.5 554.702 97.5V98ZM651.702 1V1.5H862V1V0.5H651.702V1ZM862 1V1.5C872.77 1.5 881.5 10.2304 881.5 21H882H882.5C882.5 9.67816 873.322 0.5 862 0.5V1ZM882 21H881.5V606H882H882.5V21H882ZM882 606H881.5C881.5 616.77 872.77 625.5 862 625.5V626V626.5C873.322 626.5 882.5 617.322 882.5 606H882ZM862 626V625.5H21V626V626.5H862V626ZM21 626V625.5C10.2304 625.5 1.5 616.77 1.5 606H1H0.5C0.500002 617.322 9.67816 626.5 21 626.5V626ZM1 606H1.5V21H1H0.5V606H1ZM1 21H1.5C1.5 10.2305 10.2305 1.50001 21 1.5V1V0.5C9.67817 0.500013 0.500001 9.67817 0.5 21H1ZM21 1V1.5H230.336V1V0.5H21V1ZM604.702 48H605.202C605.202 22.3188 626.021 1.5 651.702 1.5V1V0.5C625.469 0.5 604.202 21.7665 604.202 48H604.702ZM277.336 48H277.836C277.836 21.7665 256.569 0.5 230.336 0.5V1V1.5C256.017 1.5 276.836 22.3188 276.836 48H277.336Z" fill="#9747FF" fill-opacity="0.5"/>
</svg>
