<svg version="1.1" id="Layer_1" xmlns="http://www.w3.org/2000/svg" xmlns:xlink="http://www.w3.org/1999/xlink" x="0px" y="0px"
	 width="100%" viewBox="0 0 512 512" enable-background="new 0 0 512 512" xml:space="preserve">
<path fill="#000000" opacity="1.000000" stroke="none" 
	d="
M143.468658,513.000000 
	C135.975845,507.660065 133.792389,500.506104 134.573822,491.930176 
	C135.025665,486.971527 134.623184,481.937988 134.671585,476.938782 
	C134.718399,472.102356 136.273285,467.733429 139.641632,464.284485 
	C141.139984,462.750275 141.358994,461.613098 140.931381,459.533722 
	C138.445419,447.445862 129.248718,441.047241 120.157936,434.562103 
	C110.395630,427.597931 99.673836,422.319336 88.951035,417.039368 
	C69.634521,407.527802 54.729664,393.369385 43.788063,374.778473 
	C37.987862,364.923340 30.685694,355.921783 25.244226,345.893188 
	C17.269300,331.195496 10.460408,315.887909 8.660584,298.914215 
	C7.442597,287.427704 19.825771,275.982910 33.633347,278.951996 
	C40.449837,280.417755 45.938965,283.763153 48.773319,290.545837 
	C50.820618,295.445129 53.529591,300.146912 54.940117,305.215973 
	C57.472523,314.316620 62.566517,321.712280 68.817520,328.435822 
	C73.070366,333.010162 76.096405,338.694092 81.594597,342.733093 
	C81.380516,335.959351 81.793465,329.609711 86.197510,324.552795 
	C93.419518,316.260132 105.937225,314.980469 114.623665,321.786835 
	C121.805000,327.413849 128.647980,333.474609 135.606384,339.383789 
	C145.084763,347.432953 154.498215,355.559113 164.030106,363.544098 
	C165.242050,364.559357 166.954300,365.064087 168.511887,365.565948 
	C178.774567,368.872711 189.107742,372.063812 198.922958,376.513794 
	C215.629456,384.088135 226.754303,397.159149 233.843719,413.832672 
	C239.815277,427.877167 242.541046,442.655731 243.312759,457.823181 
	C243.433380,460.194153 244.177826,461.759399 246.152832,463.215027 
	C250.576111,466.474976 252.689133,470.884766 252.411163,476.593781 
	C252.103546,482.911835 251.965683,489.283325 252.428833,495.581909 
	C252.968231,502.917908 250.787964,508.593353 244.227844,512.753418 
	C210.645767,513.000000 177.291550,513.000000 143.468658,513.000000 
M120.859619,362.634583 
	C127.829514,370.631866 134.872711,378.566864 141.739212,386.651947 
	C145.322266,390.870819 145.021484,396.085266 141.376816,399.104645 
	C138.140121,401.786011 131.824127,401.167511 128.735596,397.679718 
	C125.773232,394.334351 123.323418,390.473694 120.072975,387.460083 
	C115.845955,383.541107 113.288681,377.890533 107.858917,375.302216 
	C97.223114,370.232178 86.488152,365.370544 75.826660,360.353760 
	C72.519165,358.797394 69.596802,356.824127 67.315773,353.729980 
	C63.883011,349.073486 60.075451,344.678802 56.246429,340.332123 
	C49.414330,332.576355 43.106358,324.592133 40.077126,314.405914 
	C38.524731,309.185791 36.234245,304.173676 34.097992,299.143707 
	C33.094307,296.780487 31.666683,294.598877 28.416880,295.857483 
	C25.208788,297.099945 24.709854,299.641998 25.796024,302.394806 
	C30.829098,315.150696 33.792915,328.731781 42.044437,340.199280 
	C48.238224,348.807007 53.879009,357.849152 59.268681,366.991058 
	C69.073807,383.622467 83.097015,395.336182 100.299881,403.582794 
	C109.743912,408.110046 118.989632,412.997070 127.707863,418.831665 
	C142.078751,428.449249 154.820190,439.387970 158.158920,457.609711 
	C158.794189,461.076874 161.077591,460.646362 163.366486,460.647858 
	C182.688553,460.660675 202.012115,460.525330 221.331604,460.748749 
	C226.099289,460.803864 227.159180,458.700775 226.611496,454.701599 
	C225.035904,443.196686 223.222260,431.723328 218.445358,421.020081 
	C213.988235,411.033386 208.055878,402.188049 198.659561,395.986755 
	C189.224686,389.760010 178.379089,387.113800 167.990250,383.284698 
	C163.029205,381.456146 157.571960,380.630829 153.394348,377.138885 
	C143.478073,368.850159 133.741257,360.347168 123.884331,351.986847 
	C117.438637,346.519806 110.915131,341.144348 104.414291,335.742584 
	C102.855324,334.447174 101.222908,333.827362 99.611855,335.670471 
	C98.091019,337.410400 99.211105,338.665070 100.392464,339.971191 
	C107.064461,347.347900 113.709694,354.748779 120.859619,362.634583 
M236.494339,479.247589 
	C235.891418,477.420135 234.373047,477.370636 232.835541,477.370483 
	C207.012634,477.367706 181.189667,477.394989 155.366928,477.327148 
	C152.297455,477.319092 151.222687,478.581024 151.322205,481.522644 
	C151.457306,485.516479 151.444717,489.520721 151.330521,493.515778 
	C151.245178,496.500885 152.501724,497.675140 155.485046,497.669037 
	C181.141251,497.616638 206.797699,497.605530 232.453766,497.686584 
	C235.848557,497.697296 236.777725,496.147278 236.680542,493.096039 
	C236.542740,488.768677 236.622177,484.434387 236.494339,479.247589 
z"/>
<path fill="#000000" opacity="1.000000" stroke="none" 
	d="
M271.468658,513.000000 
	C263.742645,508.533600 261.930817,501.840088 262.567932,493.766510 
	C263.025116,487.972961 262.894104,482.101440 262.585114,476.288147 
	C262.289459,470.726807 264.454407,466.378082 268.756195,463.415161 
	C271.494843,461.528839 271.494141,459.321594 271.696716,456.618713 
	C273.225983,436.213898 277.354645,416.607880 289.222443,399.321564 
	C297.706543,386.963898 309.139069,378.614410 323.132538,373.624817 
	C330.950562,370.837128 338.793274,368.107635 346.694763,365.569519 
	C351.164459,364.133759 354.332733,360.870544 357.713318,358.051331 
	C371.847046,346.264587 385.694885,334.135773 399.764771,322.271423 
	C406.670502,316.448242 416.528931,316.010468 424.444550,320.783844 
	C431.164948,324.836487 434.431763,333.287201 432.714081,342.116791 
	C432.631409,342.541748 432.746063,343.005096 432.796600,343.993286 
	C446.028748,329.633026 458.483215,315.509674 463.714966,296.403687 
	C466.381653,286.665192 472.561005,279.744415 483.478485,278.688599 
	C498.164673,277.268311 510.401489,289.611481 505.688751,305.942169 
	C500.695923,323.243622 494.901031,340.387146 483.874939,355.246033 
	C477.366211,364.017212 472.043182,373.659363 465.978180,382.770874 
	C456.871002,396.452759 444.730713,406.923309 430.360138,414.672577 
	C416.065704,422.380707 401.186920,429.043274 388.339081,439.220795 
	C381.716125,444.467194 376.047058,450.303680 374.168091,459.016968 
	C373.692444,461.222595 373.819153,462.658417 375.372131,464.349457 
	C378.749023,468.026520 380.360901,472.489655 380.337280,477.525085 
	C380.309143,483.521210 380.081940,489.530457 380.393097,495.510498 
	C380.786621,503.073578 378.068268,508.754578 371.234344,512.763245 
	C337.979095,513.000000 304.958221,513.000000 271.468658,513.000000 
M456.441040,366.002869 
	C457.212463,364.723236 457.984863,363.444153 458.755157,362.163849 
	C467.106079,348.283966 478.046783,335.910339 482.974670,320.035980 
	C484.894196,313.852539 487.330048,307.831024 489.356964,301.678528 
	C490.148804,299.274963 489.733917,297.157837 486.940216,295.953949 
	C484.034271,294.701752 482.495789,296.139221 481.321503,298.392181 
	C480.483643,299.999695 479.917023,301.746948 479.198517,303.418610 
	C474.895020,313.431122 472.409882,324.299133 465.016998,332.850708 
	C459.376007,339.375793 453.977509,346.110474 448.336243,352.635254 
	C446.419983,354.851685 445.146698,357.624573 442.128845,358.942291 
	C434.373657,362.328644 426.657257,365.823486 419.069824,369.567688 
	C413.746674,372.194550 407.583130,373.659454 403.386780,377.944580 
	C397.368347,384.090240 392.097076,390.963593 386.434448,397.463165 
	C383.158417,401.223389 376.641876,401.906158 373.390350,398.970062 
	C370.022186,395.928589 369.800629,390.902618 373.110382,386.811768 
	C386.157990,370.684937 400.796722,355.967773 414.423462,340.352112 
	C415.616943,338.984406 417.514618,337.860779 415.549591,335.839417 
	C413.872192,334.113922 412.178802,334.218628 410.298706,335.825165 
	C399.074921,345.415771 387.761841,354.901886 376.537018,364.491272 
	C366.982758,372.653503 357.947906,381.460999 344.882385,384.156616 
	C339.568665,385.252899 334.484161,387.547028 329.365051,389.480621 
	C319.916168,393.049622 311.564301,398.052002 305.213348,406.306885 
	C294.109802,420.739105 290.675232,437.662659 288.380493,455.053436 
	C287.868103,458.936646 289.029022,460.793671 293.475433,460.746216 
	C312.305908,460.545135 331.142273,460.491180 349.970520,460.778107 
	C354.699615,460.850159 356.750580,459.434387 357.756409,454.809631 
	C359.625427,446.216003 363.811157,438.784241 370.240662,432.584290 
	C383.477448,419.819916 399.265991,411.047424 415.609009,403.107452 
	C432.616058,394.844788 446.564728,383.214172 456.441040,366.002869 
M337.499939,497.657349 
	C344.826782,497.652496 352.154510,497.581146 359.480072,497.675262 
	C362.445160,497.713348 363.749420,496.546173 363.659424,493.546112 
	C363.549622,489.886200 363.397247,486.198700 363.713531,482.562317 
	C364.089539,478.239319 362.204803,477.250031 358.217682,477.278381 
	C336.737762,477.431213 315.256165,477.352173 293.775146,477.353027 
	C279.187653,477.353577 279.360962,477.354828 279.244934,492.181427 
	C279.209412,496.722290 280.803253,497.783691 285.046356,497.734131 
	C302.195526,497.533722 319.348389,497.654510 337.499939,497.657349 
z"/>
<path fill="#000000" opacity="1.000000" stroke="none" 
	d="
M262.541931,1.000000 
	C269.512054,6.077753 270.722565,13.991946 273.345123,21.033335 
	C274.949066,25.339731 277.077820,26.763029 281.669922,26.851164 
	C286.601654,26.945816 291.565430,27.579014 296.544525,27.747408 
	C301.416504,27.912176 304.527802,30.913813 306.022552,35.325817 
	C307.793549,40.553280 306.147034,45.554462 302.035126,48.801964 
	C298.006561,51.983624 294.079742,55.308193 289.907562,58.289162 
	C286.916595,60.426151 286.895752,62.794678 287.945770,65.939384 
	C289.414215,70.337097 290.525940,74.859131 291.669922,79.358574 
	C293.053589,84.800697 291.570312,90.711510 287.979584,92.884682 
	C283.176239,95.791756 278.248779,95.585434 273.482452,92.538216 
	C269.146454,89.766113 264.677307,87.180061 260.510742,84.173950 
	C258.181335,82.493317 256.540497,82.700714 254.321060,84.254837 
	C250.113861,87.200821 245.707062,89.863869 241.358292,92.604988 
	C236.646744,95.574791 230.518829,95.627579 226.868240,92.782402 
	C223.433228,90.105240 221.907806,84.195755 223.327667,79.118301 
	C224.087616,76.400711 224.393524,73.455627 225.653244,70.996918 
	C229.637985,63.219658 226.869980,58.059734 219.974747,53.964596 
	C217.716721,52.623539 215.854218,50.627506 213.763657,48.991287 
	C209.130890,45.365364 207.333969,40.155445 209.012390,35.056911 
	C210.619003,30.176443 214.559418,27.420149 220.695023,27.717867 
	C226.067657,27.978559 231.240280,26.350761 236.571701,26.609079 
	C238.780731,26.716114 239.832230,25.332432 240.537659,23.474379 
	C242.128784,19.283381 243.921417,15.160631 245.321899,10.907975 
	C246.558426,7.153213 248.473679,3.977925 251.766708,1.245057 
	C255.361282,1.000000 258.722565,1.000000 262.541931,1.000000 
M272.598206,50.189705 
	C274.634186,47.882427 277.983978,46.956711 279.788818,42.922836 
	C266.816559,46.146282 260.114868,40.235863 257.460602,27.636930 
	C254.959778,39.952023 248.585449,46.064064 234.613953,42.840454 
	C239.038666,48.095741 244.043304,49.954803 245.807434,54.688709 
	C247.663071,59.668240 244.323822,64.250732 244.230789,69.406052 
	C249.260803,68.138054 252.199188,63.379745 257.592194,63.559525 
	C263.052246,63.741535 266.176483,68.251617 270.867188,69.866417 
	C268.508392,54.938759 268.508392,54.938759 272.598206,50.189705 
z"/>
<path fill="#000000" opacity="1.000000" stroke="none" 
	d="
M153.257202,312.616455 
	C140.939453,294.432495 132.791092,274.899506 130.861679,253.339432 
	C127.821388,219.366226 135.509705,188.209900 156.877426,160.906830 
	C176.547363,135.773132 202.118546,119.825806 233.202728,114.128761 
	C270.306763,107.328423 304.815216,114.910522 335.165131,138.042511 
	C359.581390,156.652008 375.542480,181.164200 381.819336,211.133102 
	C390.001617,250.199646 382.277008,286.357971 357.668152,318.083862 
	C338.763428,342.455933 313.732086,358.143341 283.451233,363.962860 
	C243.621368,371.617523 207.397339,362.990479 175.692398,336.995667 
	C167.130188,329.975525 159.968582,321.775604 153.257202,312.616455 
M340.124023,312.608276 
	C340.908051,311.540680 341.648560,310.437744 342.482513,309.410675 
	C362.998169,284.144592 371.255524,255.443726 366.717743,223.137314 
	C362.801086,195.252975 349.589386,172.313339 328.170898,154.561768 
	C305.206329,135.528839 278.659851,126.556183 248.401947,129.199585 
	C234.605530,130.404861 221.553146,133.730179 209.320496,139.860565 
	C184.169006,152.465256 166.110611,171.863846 155.080887,197.846924 
	C147.690247,215.257217 145.313354,233.576233 147.654053,251.958572 
	C151.891479,285.236786 168.167252,311.858826 196.143799,330.789093 
	C222.392044,348.549927 251.174881,353.804840 282.077545,346.919189 
	C304.846741,341.845703 323.670502,329.877686 340.124023,312.608276 
z"/>
<path fill="#000000" opacity="1.000000" stroke="none" 
	d="
M78.268379,176.366348 
	C76.147720,177.734222 74.423218,179.055573 72.549881,180.113297 
	C67.617645,182.898102 62.421638,183.986389 57.645611,180.177155 
	C53.251873,176.672836 52.910675,171.656494 54.181118,166.527206 
	C55.257984,162.179474 56.248596,157.773300 57.818455,153.596359 
	C59.097855,150.192245 58.379093,147.885376 55.662052,145.775894 
	C51.861103,142.824905 48.189011,139.707153 44.371525,136.778427 
	C39.306732,132.892746 37.763737,128.426666 39.891399,122.423889 
	C41.687569,117.356354 45.548615,115.830719 50.787899,115.471817 
	C56.248531,115.097748 61.694836,114.526405 67.172585,114.652504 
	C69.740150,114.711617 70.623337,113.087563 71.366402,111.148521 
	C73.446434,105.720688 75.708931,100.352890 77.536713,94.841125 
	C79.273109,89.604942 83.623650,88.159706 88.056328,87.953850 
	C92.237457,87.759674 96.423439,89.544022 98.325058,93.785049 
	C100.627129,98.919144 102.511803,104.248695 104.403755,109.555458 
	C105.658653,113.075348 107.529457,115.249031 111.675659,114.678619 
	C117.178833,113.921509 122.561874,115.606438 128.041901,115.770920 
	C132.529205,115.905602 135.337540,118.937729 136.713898,122.912209 
	C138.067413,126.820686 138.126877,131.009888 134.822815,134.068375 
	C130.205200,138.342758 125.415703,142.478882 120.357124,146.209595 
	C117.812973,148.085907 117.534378,149.784393 118.365005,152.503815 
	C119.913467,157.573456 121.038773,162.772766 122.601036,167.837646 
	C124.272842,173.257629 122.241470,177.566681 118.209839,180.587234 
	C114.199081,183.592117 109.337746,183.267944 105.002930,180.827377 
	C101.248070,178.713348 97.525169,176.400940 94.230148,173.647324 
	C90.028946,170.136398 86.327255,170.154495 82.348213,173.743439 
	C81.251472,174.732666 79.855415,175.390030 78.268379,176.366348 
M108.979660,131.544724 
	C104.293198,130.991348 99.242973,132.436646 95.077995,129.017593 
	C91.119629,125.768143 91.195297,120.209190 88.137405,116.085243 
	C85.353241,120.543404 85.525574,126.025383 81.415657,129.145355 
	C77.280434,132.284546 71.978424,130.842728 65.445404,132.130280 
	C76.984703,138.272995 80.217674,146.225601 74.486137,157.636887 
	C84.302986,149.437332 93.207130,149.947403 101.930115,158.667831 
	C101.848816,155.064377 100.871750,152.773575 100.176254,150.401688 
	C98.416496,144.400284 99.752815,141.018448 104.573761,137.029205 
	C106.410179,135.509613 108.744774,134.230820 108.979660,131.544724 
z"/>
<path fill="#000000" opacity="1.000000" stroke="none" 
	d="
M401.809204,114.646011 
	C407.459412,115.536148 409.714844,112.881683 411.018585,108.145386 
	C412.245819,103.686905 414.197449,99.413368 416.008606,95.133896 
	C418.038452,90.337639 422.106689,87.789421 427.003448,87.877510 
	C431.796661,87.963730 435.922821,90.054993 437.662537,95.336700 
	C439.372772,100.528908 441.637451,105.537392 443.384552,110.718971 
	C444.394379,113.713821 446.040649,115.025665 449.221558,114.668327 
	C455.058075,114.012642 460.795044,115.429581 466.590302,115.736923 
	C471.098053,115.975983 473.883026,118.732094 475.181732,122.908813 
	C476.665649,127.681213 476.060883,132.158356 472.198364,135.625580 
	C468.994446,138.501602 465.768494,141.496475 462.099518,143.676605 
	C456.899109,146.766739 455.495544,150.387512 457.936554,156.013275 
	C459.370361,159.317703 459.858368,163.034470 460.752655,166.570602 
	C462.054932,171.719910 461.806885,176.667694 457.333160,180.174713 
	C452.511322,183.954727 447.300385,182.941467 442.438873,180.043945 
	C438.451416,177.667374 434.658417,174.961716 430.806274,172.361832 
	C427.861938,170.374634 425.200348,170.263153 422.199829,172.588150 
	C418.797668,175.224380 414.897308,177.210846 411.438507,179.782394 
	C406.736084,183.278534 401.616699,183.658936 397.007080,180.700821 
	C392.504059,177.811066 390.960999,173.072159 392.561707,167.574341 
	C394.043976,162.483200 395.145386,157.280807 396.642761,152.194611 
	C397.401489,149.617386 397.048981,147.968475 394.730865,146.267593 
	C390.190948,142.936539 385.923523,139.229843 381.592529,135.619598 
	C377.516174,132.221619 376.749512,127.734215 378.138977,122.945778 
	C379.371216,118.699341 384.260986,115.771118 389.477020,115.640541 
	C393.457672,115.540894 397.325775,114.122177 401.809204,114.646011 
M414.681183,150.652023 
	C414.394012,152.862915 412.690063,154.886856 414.088593,158.144577 
	C422.446289,149.271912 431.235199,150.154831 440.721588,157.684662 
	C433.836975,145.478439 439.314697,138.055359 449.200134,131.624512 
	C436.485779,133.495575 429.063171,128.594666 426.820953,115.597145 
	C424.077667,127.899185 417.420349,133.700760 403.873993,131.029114 
	C410.336273,137.132675 417.814026,140.707962 414.681183,150.652023 
z"/>
<path fill="#000000" opacity="1.000000" stroke="none" 
	d="
M159.398041,218.701508 
	C162.235733,203.433456 168.606323,190.204559 177.665359,178.266205 
	C194.133942,156.563232 216.155640,143.604095 242.905945,139.895294 
	C295.659973,132.581223 345.497528,165.528244 356.129272,220.696350 
	C357.676514,228.724838 352.334961,234.288986 345.384552,232.006210 
	C341.533173,230.741272 340.330353,227.600296 339.604980,223.996841 
	C335.915497,205.668365 327.315857,190.007614 313.385162,177.527893 
	C299.908234,165.454681 284.130890,158.187759 266.004578,156.342758 
	C237.221161,153.413040 213.632156,163.935089 194.434631,184.771011 
	C184.078842,196.010605 178.333923,209.819046 175.281860,224.740692 
	C174.494354,228.590866 172.815399,231.612061 168.487747,232.285248 
	C164.873108,232.847534 161.841888,231.897919 159.807404,228.752151 
	C157.825531,225.687729 158.546753,222.384705 159.398041,218.701508 
z"/>
<path fill="#000000" opacity="1.000000" stroke="none" 
	d="
M219.149841,332.105713 
	C207.212601,327.362396 197.043625,320.426300 188.084549,311.973938 
	C176.977295,301.494873 168.571045,289.011658 163.581955,274.423431 
	C161.815155,269.257294 159.966599,264.128845 158.961258,258.720123 
	C157.603561,251.415558 159.804199,246.871536 165.516083,245.837158 
	C170.253616,244.979248 174.094193,248.634827 175.423111,255.267075 
	C182.257370,289.374817 210.913589,316.669250 245.148758,321.690735 
	C269.924469,325.324738 291.649750,318.618347 310.945312,302.842499 
	C326.704163,289.958191 335.615814,273.268555 339.678833,253.651764 
	C340.650116,248.962265 344.609558,245.421127 348.557526,245.728760 
	C353.802948,246.137497 356.827362,249.408325 356.255432,255.327744 
	C355.089996,267.390869 350.681946,278.531158 344.828644,288.995483 
	C334.825958,306.877930 320.295288,320.312103 302.025818,329.349365 
	C283.903259,338.314026 264.613586,341.196167 244.461685,338.591919 
	C235.842926,337.478149 227.552170,335.429779 219.149841,332.105713 
z"/>
<path fill="#000000" opacity="1.000000" stroke="none" 
	d="
M240.058197,276.320007 
	C234.582397,273.400055 229.108841,270.871826 228.704956,263.904510 
	C228.535065,260.973907 229.013260,258.241089 231.903671,256.588379 
	C235.036148,254.797226 237.735199,256.033539 240.199524,257.918152 
	C243.086304,260.125916 245.595764,262.755890 249.337692,263.761139 
	C252.929810,264.726105 254.511505,263.361450 254.575745,259.992279 
	C254.696472,253.662476 254.577011,247.328415 254.652222,240.997269 
	C254.683319,238.378845 253.283264,237.197433 251.027100,236.304611 
	C246.722366,234.601181 242.326477,233.049164 238.705963,229.957138 
	C231.025253,223.397690 229.233475,214.960617 231.237289,205.567902 
	C233.322189,195.795090 240.194702,190.775452 249.505966,188.737442 
	C252.115738,188.166229 254.389725,187.736664 254.748459,184.498260 
	C255.006104,182.172379 256.737976,181.703232 258.755371,181.684738 
	C260.913239,181.664948 262.899170,181.977814 263.237823,184.565765 
	C263.538605,186.864532 264.977203,187.294418 266.939789,187.814270 
	C271.088867,188.913239 275.497620,189.054916 279.389069,191.132095 
	C283.966187,193.575272 285.160828,196.549179 283.249939,200.913788 
	C281.340271,205.275665 278.507202,206.219070 273.424744,204.185455 
	C263.347076,200.153122 263.347046,200.153107 263.345581,211.031219 
	C263.345520,211.364487 263.390594,211.704758 263.339661,212.030014 
	C262.015747,220.486465 264.107361,226.048004 273.294312,229.427521 
	C282.891602,232.957947 287.492004,244.526367 286.299133,256.215698 
	C285.187103,267.113373 278.370667,275.251801 267.481812,278.139252 
	C264.932343,278.815338 263.196198,279.306976 263.209595,282.410065 
	C263.220001,284.826355 261.147766,285.724213 259.145294,286.137207 
	C256.984100,286.582916 255.125992,285.101349 255.013947,283.379791 
	C254.765350,279.560120 252.067856,279.528473 249.543213,278.878296 
	C246.498764,278.094299 243.474411,277.232269 240.058197,276.320007 
M271.623718,254.225952 
	C271.499603,246.607849 269.171570,243.694397 262.798035,243.253647 
	C262.798035,250.082764 262.798035,256.897858 262.798035,264.328308 
	C268.301147,262.972748 270.756042,259.770508 271.623718,254.225952 
M244.948853,211.385941 
	C245.716690,216.077042 248.420380,218.972992 253.050476,220.409088 
	C255.725067,216.594650 254.425217,212.503082 254.565811,208.665131 
	C254.642639,206.567825 255.570221,203.478363 252.388489,202.859756 
	C249.410873,202.280853 247.507584,204.528061 246.184982,206.947128 
	C245.565125,208.080856 245.354553,209.438370 244.948853,211.385941 
z"/>
</svg>