<svg width="44" height="37" viewBox="0 0 44 37" fill="none" xmlns="http://www.w3.org/2000/svg">
<g filter="url(#filter0_dddd_690_3554)">
<rect x="1" y="5" width="27" height="27" rx="13.5" fill="#D9D9D9"/>
<path fill-rule="evenodd" clip-rule="evenodd" d="M15 13.5C17.7614 13.5 20 15.7386 20 18.5C20 21.2614 17.7614 23.5 15 23.5C12.2386 23.5 10 21.2614 10 18.5C10 15.7386 12.2386 13.5 15 13.5ZM15 14C12.5147 14 10.5 16.0147 10.5 18.5C10.5 20.9853 12.5147 23 15 23C17.4853 23 19.5 20.9853 19.5 18.5C19.5 16.0147 17.4853 14 15 14ZM16.8988 15.8943L17.606 16.6014L15.7074 18.5L17.606 20.3986L16.8988 21.1057L15.0003 19.2071L13.1052 21.1022L12.3981 20.395L14.2932 18.5L12.3981 16.605L13.1052 15.8978L15.0003 17.7929L16.8988 15.8943Z" fill="#303131"/>
</g>
<defs>
<filter id="filter0_dddd_690_3554" x="0" y="0" width="44" height="37" filterUnits="userSpaceOnUse" color-interpolation-filters="sRGB">
<feFlood flood-opacity="0" result="BackgroundImageFix"/>
<feColorMatrix in="SourceAlpha" type="matrix" values="0 0 0 0 0 0 0 0 0 0 0 0 0 0 0 0 0 0 127 0" result="hardAlpha"/>
<feOffset dx="1"/>
<feGaussianBlur stdDeviation="1"/>
<feColorMatrix type="matrix" values="0 0 0 0 0 0 0 0 0 0 0 0 0 0 0 0 0 0 0.15 0"/>
<feBlend mode="normal" in2="BackgroundImageFix" result="effect1_dropShadow_690_3554"/>
<feColorMatrix in="SourceAlpha" type="matrix" values="0 0 0 0 0 0 0 0 0 0 0 0 0 0 0 0 0 0 127 0" result="hardAlpha"/>
<feOffset dx="3"/>
<feGaussianBlur stdDeviation="1.5"/>
<feColorMatrix type="matrix" values="0 0 0 0 0 0 0 0 0 0 0 0 0 0 0 0 0 0 0.13 0"/>
<feBlend mode="normal" in2="effect1_dropShadow_690_3554" result="effect2_dropShadow_690_3554"/>
<feColorMatrix in="SourceAlpha" type="matrix" values="0 0 0 0 0 0 0 0 0 0 0 0 0 0 0 0 0 0 127 0" result="hardAlpha"/>
<feOffset dx="6"/>
<feGaussianBlur stdDeviation="2"/>
<feColorMatrix type="matrix" values="0 0 0 0 0 0 0 0 0 0 0 0 0 0 0 0 0 0 0.08 0"/>
<feBlend mode="normal" in2="effect2_dropShadow_690_3554" result="effect3_dropShadow_690_3554"/>
<feColorMatrix in="SourceAlpha" type="matrix" values="0 0 0 0 0 0 0 0 0 0 0 0 0 0 0 0 0 0 127 0" result="hardAlpha"/>
<feOffset dx="11"/>
<feGaussianBlur stdDeviation="2.5"/>
<feColorMatrix type="matrix" values="0 0 0 0 0 0 0 0 0 0 0 0 0 0 0 0 0 0 0.02 0"/>
<feBlend mode="normal" in2="effect3_dropShadow_690_3554" result="effect4_dropShadow_690_3554"/>
<feBlend mode="normal" in="SourceGraphic" in2="effect4_dropShadow_690_3554" result="shape"/>
</filter>
</defs>
</svg>
